<?xml version="1.0" encoding="utf-8"?>
<!-- Generator: Adobe Illustrator 25.2.3, SVG Export Plug-In . SVG Version: 6.00 Build 0)  -->
<svg version="1.1" id="Camada_1" xmlns="http://www.w3.org/2000/svg" xmlns:xlink="http://www.w3.org/1999/xlink" x="0px" y="0px"
	 viewBox="0 0 141.1 49.6" style="enable-background:new 0 0 141.1 49.6;" xml:space="preserve">
<style type="text/css">
	.st0{fill:#FFFFFF;}
</style>
<g id="Logo" transform="translate(0.01)">
	<g id="BRC_Horizontal" transform="translate(-0.01)">
		<path id="Isologo" class="st0" d="M21.5,16.1c0.7-3.2,1.4-6.5,2.1-9.7c0.4-1.7,0.7-3.3,1.1-5C24.8,0.6,25.2,0,26.1,0
			c0.8,0,1.1,0.6,1.3,1.3c0.8,2.9,1.5,5.9,2.3,8.8c0.2,0.6,0,1.2-0.5,1.6c-1.8,1.8-3.5,3.5-5.3,5.3c-0.4,0.6-1.3,0.7-1.9,0.3
			C21.7,17,21.5,16.5,21.5,16.1L21.5,16.1z M29.2,30.7c-1.7-1.7-3.5-3.4-5.2-5.2c-0.4-0.6-1.2-0.7-1.8-0.4c-0.7,0.4-0.7,1.1-0.6,1.7
			c0.3,1.6,0.7,3.1,1,4.7c0.7,3.2,1.4,6.4,2,9.5c0.1,0.7,0.4,1.3,1.2,1.4c0.6,0.1,1.3-0.2,1.4-0.9c0,0,0,0,0,0
			c0.9-3.1,1.7-6.3,2.5-9.2C29.9,31.8,29.7,31.1,29.2,30.7L29.2,30.7z M15.8,21.6c-4.9,1-9.7,2.1-14.6,3.1C0.5,24.8,0,25.3,0,26
			c0,0.8,0.5,1.2,1.2,1.4c2.9,0.8,5.9,1.6,8.8,2.4c0.5,0.2,1.1,0.1,1.5-0.3c1.9-1.9,3.8-3.8,5.6-5.7c0.4-0.3,0.5-0.9,0.3-1.4
			c-0.2-0.5-0.8-0.9-1.3-0.8C16,21.6,15.9,21.6,15.8,21.6L15.8,21.6z M20.1,25c-0.7-0.3-1.2,0.1-1.6,0.5c-1.7,1.7-3.4,3.5-5.2,5.2
			c-0.6,0.6-0.7,1.4-0.4,2.1c0.7,2.6,1.4,5.2,2.1,7.9c0.2,0.9,0.4,1.9,1.6,1.8c1-0.1,1.2-1,1.4-1.8c0.5-2.3,1-4.7,1.5-7
			c0.5-2.4,1-4.9,1.5-7.1C21,25.9,20.7,25.3,20.1,25L20.1,25z M20.9,15.7c-1-4.8-2.1-9.6-3.1-14.4c-0.1-0.7-0.6-1.2-1.3-1.3
			c-0.9,0-1.2,0.7-1.4,1.4c-0.8,2.8-1.5,5.7-2.2,8.5c-0.2,0.6-0.1,1.2,0.3,1.7c1.8,1.8,3.7,3.7,5.5,5.5c0.4,0.5,1,0.6,1.5,0.3
			c0.5-0.2,0.8-0.8,0.7-1.4C20.9,15.9,20.9,15.8,20.9,15.7L20.9,15.7z M17.4,20.1c0.2-0.5,0.1-1.1-0.4-1.5c-1.8-1.8-3.6-3.6-5.4-5.4
			c-0.5-0.5-1.2-0.6-1.8-0.3C7,13.6,4.2,14.3,1.5,15c-0.8,0.2-1.5,0.5-1.5,1.5c0.1,0.9,0.8,1.1,1.5,1.3l6.3,1.4l7.8,1.7
			C16.6,20.9,17.1,20.7,17.4,20.1L17.4,20.1z M26.7,20.9l14.6-3.1c0.7-0.1,1.2-0.7,1.2-1.4c0-0.7-0.5-1.1-1.1-1.2
			c-3-0.8-6-1.6-9-2.4c-0.5-0.2-1-0.1-1.4,0.3c-1.9,1.9-3.8,3.8-5.7,5.8c-0.4,0.4-0.5,1.1-0.1,1.5c0.3,0.4,0.8,0.7,1.3,0.6
			C26.5,20.9,26.6,20.9,26.7,20.9L26.7,20.9z M25,22.4c-0.2,0.6,0,1.3,0.5,1.6c1.7,1.7,3.5,3.4,5.2,5.2c0.5,0.6,1.4,0.8,2.1,0.5
			c2.7-0.8,5.3-1.4,8-2.1c0.8-0.2,1.7-0.4,1.7-1.5c0-1-0.9-1.3-1.7-1.5c-2.4-0.5-4.7-1-7.1-1.5c-2.4-0.5-4.9-1-6.9-1.4
			C25.7,21.5,25.2,21.8,25,22.4z M35,31.1c-2.1-0.1-3.8,1.5-3.9,3.5s1.5,3.8,3.5,3.9c0,0,0.1,0,0.1,0c2,0.1,3.8-1.4,3.9-3.5
			c0-0.1,0-0.1,0-0.2C38.5,32.9,37,31.2,35,31.1L35,31.1z M34.9,3.9c-2.1,0-3.8,1.6-3.8,3.7c0.1,2.1,1.8,3.7,3.9,3.7
			c2-0.1,3.6-1.8,3.6-3.8C38.5,5.6,36.9,4,34.9,3.9C34.9,3.9,34.8,3.9,34.9,3.9L34.9,3.9z M4,7.6c0,2,1.7,3.7,3.7,3.6
			c2,0,3.7-1.7,3.6-3.7S9.6,3.9,7.6,3.9C5.6,4,3.9,5.6,4,7.6z M11.3,34.8c0-2-1.7-3.6-3.7-3.6S4,32.9,4,34.9c0,2,1.7,3.6,3.7,3.6
			c1,0,1.9-0.4,2.5-1.1C10.9,36.7,11.3,35.8,11.3,34.8z"/>
		<path id="BRC" class="st0" d="M71.4,21.8c2,0.3,4,1.1,5.7,2.3c1.5,1.2,2.4,3,2.4,5c0,2.1-0.9,4.1-2.6,5.3
			c-2.1,1.7-5.2,2.6-9.3,2.6H53.1v-0.8c0.9,0.1,1.8-0.1,2.7-0.4c0.4-0.2,0.8-0.5,1-1c0.3-0.9,0.4-1.9,0.3-2.9V13.3
			c0.1-1,0-2-0.3-2.9c-0.2-0.4-0.6-0.8-1-1C55,9.2,54,9,53.1,9.1V8.3h13.7c3.3,0,5.6,0.3,7,0.9c1.3,0.5,2.4,1.4,3.2,2.6
			c0.8,1.1,1.2,2.4,1.2,3.7c0,1.4-0.5,2.7-1.5,3.7C75.2,20.5,73.4,21.4,71.4,21.8z M63.8,22.8V32l0,1.1c-0.2,1.1,0.6,2.1,1.8,2.3
			c0.2,0,0.4,0,0.5,0c1.1,0,2.2-0.3,3.1-0.8c0.9-0.5,1.7-1.2,2.2-2.2c0.5-1,0.8-2.1,0.8-3.2c0-1.3-0.3-2.5-0.9-3.6
			c-0.6-1-1.5-1.8-2.6-2.2C67,23,65.4,22.7,63.8,22.8z M63.8,21.2c1.5,0.1,3-0.1,4.4-0.7c0.9-0.4,1.7-1.1,2.2-1.9
			c0.5-0.9,0.8-2,0.8-3.1c0-1.1-0.2-2.2-0.8-3.1c-0.5-0.8-1.3-1.5-2.1-1.8c-1.4-0.5-3-0.7-4.5-0.6L63.8,21.2z M92.5,23.9v8
			c-0.1,1,0,2,0.3,2.9c0.2,0.4,0.6,0.8,1,1c0.9,0.3,1.8,0.4,2.7,0.4v0.8H81.8v-0.8c0.9,0.1,1.8-0.1,2.7-0.4c0.4-0.2,0.8-0.5,1-1
			c0.3-0.9,0.4-1.9,0.3-2.9V13.3c0.1-1,0-2-0.3-2.9c-0.2-0.4-0.6-0.8-1-1c-0.9-0.3-1.8-0.4-2.7-0.4V8.3h13.3
			c2.6-0.1,5.1,0.1,7.6,0.7c1.6,0.4,2.9,1.4,3.9,2.7c1,1.3,1.6,2.9,1.5,4.5c0.1,2-0.8,3.9-2.3,5.2c-1.2,1-2.6,1.6-4.1,2l6.9,9.7
			c0.6,0.8,1.2,1.6,1.9,2.3c0.6,0.4,1.3,0.7,2,0.7v0.8h-9l-9.2-13L92.5,23.9z M92.5,9.9v12.5h1.2c1.5,0.1,3-0.1,4.4-0.5
			c1-0.4,1.8-1,2.3-1.9c0.6-1.1,0.9-2.4,0.8-3.7c0.1-1.7-0.4-3.5-1.5-4.8c-1-1-2.7-1.6-4.9-1.6L92.5,9.9z M141.1,7.7v9.9h-0.8
			c-0.5-2.3-1.7-4.4-3.5-5.9c-1.6-1.3-3.6-2.1-5.7-2.1c-1.8,0-3.5,0.5-4.9,1.5c-1.5,1-2.6,2.4-3.3,4c-0.9,2.3-1.4,4.7-1.3,7.1
			c0,2.4,0.3,4.7,1,7c0.5,1.9,1.6,3.5,3,4.8c1.6,1.1,3.4,1.7,5.4,1.6c1.7,0,3.4-0.4,4.9-1.2c1.8-1,3.4-2.4,4.7-4.1v2.5
			c-1.4,1.5-3.1,2.8-5,3.7c-1.9,0.8-4,1.2-6.1,1.1c-2.8,0.1-5.6-0.6-8.1-1.8c-2.3-1.2-4.2-3-5.5-5.3c-1.3-2.2-1.9-4.7-1.9-7.3
			c0-5.6,3.1-10.7,7.9-13.5c2.4-1.3,5-2,7.7-2c2.2,0,4.3,0.5,6.4,1.3c0.8,0.4,1.6,0.6,2.5,0.8c0.4,0,0.9-0.2,1.2-0.5
			c0.4-0.4,0.6-1,0.7-1.6L141.1,7.7z"/>
		<g id="Advogados" transform="translate(53.14 42.757)">
			<path id="Caminho_1" class="st0" d="M2.4,0.2h1l2.3,6.4h-1L4.1,4.7H1.6L0.9,6.6H0L2.4,0.2z M3.9,4l-1-2.8L1.8,4H3.9z"/>
			<path id="Caminho_2" class="st0" d="M7.5,0.2h2.6c0.8,0,1.6,0.3,2.1,0.9c0.5,0.6,0.7,1.4,0.7,2.2c0,0.6-0.1,1.3-0.4,1.9
				c-0.4,0.9-1.3,1.5-2.3,1.5H7.5L7.5,0.2z M9.9,5.9c0.2,0,0.5,0,0.7-0.1c0.3-0.1,0.6-0.4,0.8-0.7c0.2-0.3,0.3-0.6,0.4-1
				c0-0.2,0.1-0.4,0.1-0.7c0-0.7-0.1-1.3-0.5-1.9c-0.4-0.5-0.9-0.7-1.5-0.7H8.4v4.9L9.9,5.9z"/>
			<path id="Caminho_3" class="st0" d="M15.3,0.2l1.9,5.5L19,0.2h1l-2.3,6.4h-0.9l-2.3-6.4H15.3z"/>
			<path id="Caminho_4" class="st0" d="M27,1.1c0.4,0.6,0.7,1.4,0.6,2.2c0,0.9-0.2,1.7-0.7,2.4c-1.2,1.4-3.2,1.5-4.6,0.3
				c-0.1-0.1-0.1-0.1-0.2-0.2c-0.5-0.7-0.8-1.5-0.8-2.4c0-0.8,0.2-1.6,0.7-2.2C22.6,0.4,23.5,0,24.5,0C25.5-0.1,26.4,0.4,27,1.1z
				 M26.2,5.2c0.3-0.6,0.5-1.2,0.5-1.9c0-0.7-0.2-1.3-0.6-1.8c-0.4-0.5-1-0.7-1.6-0.7c-0.6,0-1.2,0.2-1.6,0.7
				c-0.5,0.6-0.7,1.3-0.6,2c0,0.6,0.2,1.3,0.5,1.8c0.4,0.5,1.1,0.8,1.8,0.7C25.2,6.1,25.9,5.8,26.2,5.2L26.2,5.2z"/>
			<path id="Caminho_5" class="st0" d="M34,0.4c0.7,0.4,1.1,1,1.2,1.8h-0.9c-0.1-0.4-0.3-0.8-0.7-1c-0.4-0.2-0.8-0.3-1.2-0.3
				c-0.6,0-1.1,0.2-1.5,0.7c-0.4,0.6-0.7,1.3-0.6,2c0,0.7,0.1,1.3,0.5,1.9c0.4,0.5,1,0.8,1.6,0.7c0.5,0,1-0.2,1.4-0.5
				c0.4-0.4,0.6-1,0.6-1.6h-2V3.2h2.8v3.4h-0.6l-0.2-0.8C34.2,6,34,6.3,33.7,6.4c-0.4,0.2-1,0.3-1.5,0.3c-0.7,0-1.4-0.2-2-0.7
				c-0.6-0.7-1-1.6-0.9-2.6c0-0.9,0.3-1.9,0.9-2.6C30.8,0.3,31.5,0,32.4,0C32.9,0,33.5,0.1,34,0.4L34,0.4z"/>
			<path id="Caminho_6" class="st0" d="M39.3,0.2h1l2.3,6.4h-1L41,4.7h-2.5l-0.7,1.9h-0.9L39.3,0.2z M40.8,4l-1-2.8l-1,2.8H40.8z"/>
			<path id="Caminho_7" class="st0" d="M44.4,0.2H47c0.8,0,1.6,0.3,2.1,0.9c0.5,0.6,0.7,1.4,0.7,2.2c0,0.6-0.1,1.3-0.4,1.9
				C48.9,6.1,48,6.7,47,6.6h-2.6L44.4,0.2z M46.8,5.9c0.2,0,0.5,0,0.7-0.1c0.3-0.1,0.6-0.4,0.8-0.7c0.2-0.3,0.3-0.6,0.4-1
				c0-0.2,0.1-0.4,0.1-0.7c0-0.7-0.1-1.3-0.5-1.9c-0.4-0.5-0.9-0.7-1.5-0.7h-1.6v4.9L46.8,5.9z"/>
			<path id="Caminho_8" class="st0" d="M57,1.1c0.4,0.6,0.7,1.4,0.6,2.2c0,0.9-0.2,1.7-0.7,2.4c-0.6,0.8-1.5,1.2-2.5,1.1
				c-0.9,0-1.7-0.3-2.3-1c-0.5-0.7-0.8-1.5-0.8-2.4c0-0.8,0.2-1.6,0.6-2.2C52.6,0.4,53.5,0,54.5,0C55.5-0.1,56.4,0.4,57,1.1z
				 M56.3,5.2c0.3-0.6,0.5-1.2,0.5-1.9c0-0.7-0.2-1.3-0.6-1.8c-0.4-0.5-1-0.7-1.6-0.7c-0.6,0-1.2,0.2-1.6,0.7
				c-0.5,0.6-0.7,1.3-0.6,2c0,0.6,0.2,1.3,0.5,1.8c0.4,0.5,1.1,0.8,1.8,0.7C55.3,6.1,55.9,5.8,56.3,5.2L56.3,5.2z"/>
			<path id="Caminho_9" class="st0" d="M60.2,4.5c0,0.3,0.1,0.6,0.3,0.9c0.4,0.5,0.9,0.7,1.5,0.6c0.3,0,0.6,0,0.9-0.1
				c0.5-0.1,0.8-0.5,0.8-1c0-0.3-0.1-0.6-0.3-0.7c-0.3-0.2-0.7-0.3-1-0.4l-0.9-0.2c-0.4-0.1-0.8-0.2-1.2-0.4
				c-0.4-0.3-0.6-0.7-0.6-1.2c0-0.5,0.2-1.1,0.6-1.4C60.6,0.2,61.2,0,61.9,0c0.6,0,1.2,0.2,1.7,0.5c0.5,0.4,0.8,1,0.7,1.6h-0.8
				c0-0.3-0.1-0.6-0.3-0.8c-0.3-0.4-0.9-0.6-1.4-0.5c-0.4,0-0.8,0.1-1.1,0.3c-0.2,0.2-0.3,0.5-0.3,0.8c0,0.3,0.1,0.6,0.4,0.7
				c0.4,0.2,0.8,0.3,1.2,0.3l0.9,0.2c0.4,0.1,0.7,0.2,1,0.4c0.4,0.3,0.6,0.8,0.6,1.3c0.1,0.6-0.3,1.2-0.8,1.5
				c-0.5,0.3-1.2,0.5-1.8,0.5c-0.7,0-1.4-0.2-1.9-0.6c-0.5-0.4-0.7-1-0.7-1.7L60.2,4.5z"/>
		</g>
	</g>
</g>
</svg>
